<svg xmlns="http://www.w3.org/2000/svg" xmlns:xlink="http://www.w3.org/1999/xlink" viewBox="0 0 135.125 90.125" fill="#fff" fill-rule="evenodd" stroke="#000" stroke-linecap="round" stroke-linejoin="round"><use xlink:href="#A" x="1.042" y="1.042"/><symbol id="A" overflow="visible"><path d="M124.824 36.5l-18.833 4c-2.229.521-4.312 1.167-6.979 4.479L81.386 65.438c-1.667 1.979-2.646 3.125-5.292 3.958L32.553 85.521c-9.25 2.396-17.583.021-15.5-17.542-9.042 3.438-17.646.625-17.021-7.208L.011 18.125C1.22 9.25 9.178 5 16.011 4.313L122.949 0c10.625 9.583 11.458 25.896 1.875 36.5z" fill="#c19a65" stroke="none" fill-rule="nonzero"/><g fill="none" stroke-width="4.167"><path d="M81.376 65.429c-1.625 2-2.637 3.16-5.271 3.994m5.271-3.994l17.646-20.442c2.667-3.321 4.75-3.971 6.967-4.492l18.833-4c9.583-10.592 8.75-26.931-1.862-36.494L16.011 4.34C9.153 5.033 1.219 9.265.007 18.135L.04 60.76c-.633 7.86 7.963 10.656 17.013 7.208-2.083 17.579 6.25 19.923 15.496 17.579l43.554-16.125"/><path d="M21.874 27.433c0 8.465 10.192 9.05 22.787 9.05-1.042 8.396-5.404 17.969-20.896 27.073"/></g></symbol></svg>